<svg width="215" height="104" viewBox="0 0 215 104" fill="none" xmlns="http://www.w3.org/2000/svg">
<path d="M1.12618 39.6286L0.613892 78.5393L37.0606 79.0476L73.5074 79.5559L74.0197 40.6451L74.5319 1.7344L38.0852 1.22612L1.63847 0.717851L1.12618 39.6286ZM37.8676 40.4703C37.6306 40.7264 37.5631 40.8851 37.5591 41.1844L37.554 41.5736L38.2457 40.8647L38.928 40.1557L40.3298 40.1753L41.7316 40.1948L39.6183 42.3907L37.5145 44.5767L37.5086 45.0256L37.5026 45.4746L40.0424 42.8357L42.5727 40.2066L43.9277 40.2255L45.2828 40.2444L41.3689 44.3111L37.4646 48.368L37.4586 48.8169L37.4527 49.2659L41.793 44.7561L46.1239 40.2561L47.5257 40.2757L48.9275 40.2952L43.1657 46.282C37.4797 52.1901 37.4132 52.269 37.4081 52.6581L37.4028 53.0572L43.5437 46.6765L49.6751 40.3056L51.0769 40.3252L52.4787 40.3447L44.9163 48.2025L37.3634 56.0503L37.3575 56.4993L37.3516 56.9483L45.3404 48.6474L53.3198 40.3565L54.6749 40.3753L56.0299 40.3942L46.667 50.1229L37.3135 59.8416L37.3076 60.2906L37.3017 60.7396L47.0911 50.5679L56.871 40.406L58.2728 40.4255L59.6746 40.4451L48.4637 52.0938C37.3286 63.6638 37.2623 63.7327 37.257 64.1318L37.2518 64.5309L48.8417 52.4883L60.4222 40.4555L61.824 40.475L63.2258 40.4946L50.2143 54.0142L37.2123 67.524L37.2064 67.973L37.2005 68.422L50.6385 54.4592L64.0669 40.5063L65.422 40.5252L66.777 40.5441L51.965 55.9346L37.1624 71.3153L37.1565 71.7643L37.1506 72.2133L52.3891 56.3796L67.6181 40.5559L69.0199 40.5754L70.4217 40.595L53.7617 57.9056C37.1775 75.1375 37.1112 75.2064 37.1059 75.6055L37.1007 76.0046L54.1398 58.3L71.1693 40.6054L72.3188 40.6214L73.4589 40.6373L73.4554 40.9067C73.4522 41.1461 70.6656 44.081 55.5219 59.8162L37.5825 78.4561L19.3872 78.2024L1.18249 77.9485L1.4347 58.7924L1.6869 39.6364L19.929 39.8908L38.171 40.1452L37.8676 40.4703ZM57.3186 61.7871L41.2272 78.5069L39.8254 78.4874L38.4236 78.4679L55.908 60.3005L73.3925 42.1332L73.4012 43.6002L73.41 45.0673L57.3186 61.7871ZM59.0692 63.7075L44.7784 78.5565L43.3766 78.5369L41.9748 78.5174L57.6587 62.2209L73.3426 45.9245L73.3513 47.3916L73.36 48.8586L59.0692 63.7075ZM60.8199 65.6279L48.3296 78.606L46.9746 78.5871L45.6195 78.5682L59.4554 64.1919L73.2914 49.8156L73.3007 51.2327L73.3101 52.6499L60.8199 65.6279ZM62.6166 67.5989L51.9743 78.6568L50.5725 78.6373L49.1707 78.6177L61.2061 66.1123L73.2415 53.6069L73.2502 55.0739L73.2589 56.541L62.6166 67.5989ZM64.3673 69.5193L55.5255 78.7063L54.1237 78.6868L52.7219 78.6673L62.9567 68.0327L73.1915 57.3982L73.2003 58.8652L73.209 60.3323L64.3673 69.5193ZM66.1179 71.4397L59.0767 78.7559L57.7217 78.737L56.3666 78.7181L64.7534 70.0037L73.1403 61.2893L73.1497 62.7064L73.1591 64.1236L66.1179 71.4397ZM67.9146 73.4107L62.7214 78.8067L61.3196 78.7872L59.9178 78.7676L66.5041 71.9241L73.0904 65.0806L73.0991 66.5476L73.1078 68.0146L67.9146 73.4107ZM69.6653 75.3311L66.2726 78.8562L64.8708 78.8367L63.469 78.8171L68.2548 73.8445L73.0405 68.8719L73.0492 70.3389L73.0579 71.8059L69.6653 75.3311ZM71.4159 77.2515L69.8239 78.9057L68.4688 78.8869L67.1137 78.868L70.0515 75.8155L72.9893 72.7629L72.9986 74.1801L73.008 75.5972L71.4159 77.2515ZM72.9703 77.7522L72.9545 78.9494L71.8144 78.9335L70.6649 78.9175L71.8021 77.7359C72.4276 77.086 72.9487 76.5544 72.958 76.5545C72.9767 76.5548 72.979 77.0937 72.9703 77.7522Z" fill="#1E2328"/>
<path d="M95.2976 40.8964C85.0084 62.1273 76.5921 79.5226 76.5917 79.5525C76.5913 79.5825 92.9921 79.8319 113.038 80.1124C133.083 80.3928 149.485 80.6024 149.485 80.5724C149.486 80.4727 114.106 2.29152 114.059 2.29087C114.031 2.29048 105.596 19.6656 95.2976 40.8964ZM122.608 22.528C127.931 34.2879 131.09 41.3972 131.033 41.4463C130.968 41.4853 131.031 41.6159 131.197 41.7878L131.474 42.0811L130.993 43.0723L130.504 44.0633L129.297 42.7392C128.145 41.4757 128.062 41.4047 127.707 41.3997L127.333 41.3945L128.789 42.9915L130.254 44.5987L129.802 45.5304C129.552 46.0458 129.332 46.4818 129.303 46.5113C129.284 46.531 128.206 45.3783 126.897 43.953L124.529 41.3553L124.109 41.3494L123.688 41.3435L126.342 44.2546L129.005 47.1757L128.553 48.1074C128.303 48.6228 128.083 49.0588 128.054 49.0884C128.035 49.1081 126.413 47.369 124.45 45.216C120.949 41.375 120.875 41.3041 120.511 41.299L120.137 41.2938L123.961 45.4886L127.775 49.6832L127.304 50.6745L126.833 51.6658L122.079 46.4601L117.333 41.2546L116.913 41.2487L116.492 41.2428L121.514 46.7516L126.536 52.2604L126.075 53.2219L125.604 54.1733L119.698 47.6941L113.782 41.2049L113.361 41.199L112.941 41.1931L119.133 47.9856L125.325 54.7881L124.835 55.7691L124.355 56.7503L117.251 48.9572C110.202 41.2246 110.137 41.1539 109.764 41.1487L109.39 41.1434L116.743 49.2095L124.105 57.2857L123.654 58.2174C123.404 58.7328 123.183 59.1688 123.155 59.1983C123.136 59.218 119.394 55.1541 114.851 50.171L106.586 41.1042L106.166 41.0983L105.745 41.0924L114.296 50.4725L122.856 59.8628L122.386 60.8141L121.924 61.7757L112.48 51.4151L103.035 41.0545L102.614 41.0486L102.194 41.0427L111.915 51.7066L121.636 62.3704L121.175 63.3119C120.925 63.8273 120.695 64.2532 120.658 64.2527C120.611 64.252 115.81 59.0157 109.987 52.6276C99.4547 41.0743 99.3902 41.0035 99.0164 40.9983L98.6426 40.9931L109.534 52.9406L120.425 64.898L119.936 65.8791L119.456 66.8603L107.68 53.9424L95.9035 41.0246L104.944 22.3607C109.92 12.0922 114.013 3.68727 114.041 3.68767C114.069 3.68806 117.921 12.1642 122.608 22.528ZM118.735 68.357C118.495 68.8526 118.283 69.2788 118.255 69.3083C118.236 69.328 113.739 64.4353 108.265 58.4412L98.3045 47.5245L96.9874 44.6122L95.6703 41.6999L107.419 54.5775L119.167 67.455L118.735 68.357ZM117.505 70.9044C117.255 71.4198 117.035 71.8558 117.006 71.8854C116.987 71.9051 113.568 68.1949 109.412 63.6463L101.847 55.3577L100.485 52.3449L99.122 49.3322L108.539 59.6525L117.957 69.9727L117.505 70.9044ZM116.256 73.4715L115.785 74.4628L110.542 68.7314L105.299 62.99L103.991 60.1077C103.273 58.511 102.683 57.1856 102.684 57.1456C102.684 57.0958 105.845 60.5328 109.706 64.768L116.727 72.4702L116.256 73.4715ZM115.026 76.0189L114.556 76.9703L111.653 73.7963L108.751 70.6223L107.433 67.71L106.116 64.7976L110.807 69.9226L115.488 75.0574L115.026 76.0189ZM113.787 78.5562L113.307 79.5473L112.8 79.0014C112.348 78.5161 112.148 78.1341 110.931 75.4427L109.568 72.4299L111.918 74.9975L114.268 77.565L113.787 78.5562Z" fill="#1E2328"/>
<path d="M175.363 3.20843C175.186 3.2259 174.615 3.28776 174.1 3.34043C169.252 3.82144 164.182 5.54672 159.782 8.19943C156.767 10.0133 153.535 12.7223 151.248 15.3347C145.839 21.5258 142.651 28.706 141.53 37.2023C141.343 38.6267 141.265 44.5531 141.414 45.9822C142.104 52.548 144.011 58.2726 147.26 63.5271C149.85 67.7246 153.001 71.1814 156.861 74.0595C161.693 77.6696 167.001 79.8594 173.13 80.7734C174.464 80.9717 180.016 81.0494 181.354 80.8885C187.505 80.1463 192.869 78.1058 197.794 74.6322C201.728 71.8632 204.969 68.4958 207.668 64.3723C211.054 59.2107 213.11 53.5415 213.972 46.9974C214.159 45.573 214.236 39.6466 214.087 38.2175C213.297 30.7023 210.86 24.142 206.711 18.356C202.13 11.9752 195.576 7.12358 188.474 4.8488C184.798 3.66974 182.802 3.34245 178.728 3.24552C177.055 3.20217 175.541 3.19096 175.363 3.20843ZM178.107 14.9322L177.961 26.0866L169.991 34.3674L162.012 42.658L162.073 43.038L162.143 43.4082L170.046 35.1964L177.949 26.9845L177.93 28.4312L177.911 29.8779L170.273 37.8041C166.075 42.166 162.606 45.8097 162.549 45.8987C162.492 46.0076 162.499 46.1674 162.562 46.3379C162.652 46.6186 162.747 46.5201 170.28 38.6923L177.899 30.7758L177.88 32.2724L177.86 33.7689L170.62 41.2916C163.409 48.7846 163.38 48.8142 163.47 49.1148L163.569 49.4056L170.704 41.9913L177.849 34.5671L177.83 36.0637L177.81 37.5602L171.215 44.4133L164.619 51.2664L164.784 51.5381L164.939 51.8197L171.374 45.134L177.798 38.4582L177.779 39.9548L177.759 41.4513L171.979 47.4576L166.189 53.4737L166.382 53.666C166.576 53.8583 166.586 53.8485 172.158 48.0588L177.749 42.2495L177.729 43.7461L177.709 45.2426L172.867 50.2741L168.025 55.3056L168.284 55.4789L168.534 55.662L173.111 50.9062L177.698 46.1406L177.679 47.5872L177.66 49.0339L173.964 52.874C171.936 54.9811 170.268 56.744 170.267 56.7939C170.267 56.8338 170.378 56.9252 170.508 56.9869C170.73 57.0997 170.853 56.9917 174.199 53.5159L177.648 49.9319L177.628 51.4284L177.609 52.925L175.173 55.4555C173.591 57.0998 172.784 58.0066 172.877 58.0379C172.942 58.0587 173.073 58.1105 173.147 58.1315C173.24 58.1627 174.064 57.3759 175.447 55.9483L177.598 53.7232L177.578 55.2197L177.559 56.7163L176.592 57.7206L175.616 58.7348L176.037 58.7407C176.42 58.746 176.495 58.6972 176.997 58.1853L177.547 57.6242L177.397 69.028L177.248 80.4419L175.809 80.3519C164.237 79.6611 153.89 73.2396 147.559 62.8228C144.512 57.8206 142.715 52.2871 142.024 45.841C141.799 43.7223 141.886 39.233 142.186 37.0119C142.797 32.5 143.923 28.6439 145.73 24.8373C149.729 16.4211 156.46 9.88928 164.741 6.40275C168.566 4.78979 173.271 3.81781 177.347 3.795L178.253 3.78773L178.107 14.9322Z" fill="#1E2328"/>
<path d="M175.069 25.5672C174.901 25.5948 172.968 27.5436 168.609 32.0729C162.573 38.355 162.393 38.5521 162.322 38.9901C162.25 39.4382 162.269 39.4285 168.94 32.4966C172.617 28.6762 175.631 25.5451 175.631 25.5351C175.631 25.5052 175.397 25.5119 175.069 25.5672Z" fill="#1E2328"/>
<path d="M169.232 28.0302C168.166 28.7637 166.007 30.9189 165.226 32.0256C163.902 33.9031 164.157 33.7171 167.189 30.5762C168.838 28.8729 170.184 27.4647 170.184 27.4548C170.185 27.3849 170.072 27.4532 169.232 28.0302Z" fill="#1E2328"/>
<path d="M13.8569 87.8554C11.8775 88.4065 10.3903 89.9025 9.76541 91.9395C9.57973 92.5556 9.5379 92.8943 9.53363 93.932C9.52897 94.9997 9.56242 95.2995 9.75899 95.9908C10.6001 98.8466 13.1018 100.528 16.0596 100.21C19.0549 99.8829 21.0473 97.6356 21.2302 94.385C21.3036 93.0589 21.1292 92.1084 20.6388 91.0139C20.1844 90.0296 19.7155 89.4343 18.9195 88.8344C17.892 88.0716 17.1382 87.8215 15.6341 87.7606C14.7185 87.7278 14.2322 87.7509 13.8569 87.8554ZM16.5955 89.2908C18.2342 89.7728 19.4038 91.1064 19.7359 92.8673C20.2332 95.5686 18.8638 98.0641 16.5566 98.6605C14.9528 99.0771 13.258 98.5944 12.1798 97.4217C11.3414 96.4919 10.9542 95.3689 10.9736 93.8923C11.0105 91.0787 12.8309 89.1184 15.3824 89.1341C15.747 89.1293 16.2881 89.2067 16.5955 89.2908Z" fill="#1E2328"/>
<path d="M37.4225 94.1725L37.342 100.308L37.9961 100.318L38.6597 100.327L38.6909 95.8068L38.7221 91.2968L39.0891 91.8208C39.7404 92.758 46.1709 100.612 46.2923 100.623C46.3763 100.634 46.4212 99.3478 46.4848 94.4989L46.5653 88.363L45.9112 88.3538L45.2476 88.3445L45.2162 92.8745C45.2022 95.3691 45.1755 97.4044 45.1663 97.3943C45.1664 97.3843 45.0013 97.1425 44.7994 96.8603C44.2951 96.1148 37.6899 88.0392 37.5871 88.0378C37.5404 88.0371 37.4695 90.5907 37.4225 94.1725Z" fill="#1E2328"/>
<path d="M86.3307 88.8095C85.4867 89.0172 84.7013 89.7547 84.4853 90.54C84.3086 91.1862 84.3788 92.2449 84.6334 92.7873C84.9242 93.4201 85.339 93.865 86.6241 94.9407C88.8524 96.798 89.1652 97.1816 89.1536 98.0596C89.1299 99.8655 86.9827 100.384 84.7185 99.1252L84.0968 98.7772L83.7608 99.4511L83.4342 100.125L84.1491 100.494C85.3839 101.13 86.6704 101.388 87.7663 101.213C89.5927 100.93 90.5508 99.8554 90.5744 98.0595C90.5948 96.5031 90.1915 95.8987 87.8518 93.9799C87.0936 93.3506 86.3543 92.7116 86.2162 92.55C85.5443 91.7523 85.6703 90.6963 86.4793 90.3084C87.1658 89.9887 88.4256 90.1461 89.3442 90.6579L89.7154 90.8626L90.0422 90.1787L90.3783 89.4948L89.9417 89.2891C89.1614 88.919 88.3972 88.7486 87.4906 88.7459C87.0045 88.7491 86.4901 88.7718 86.3307 88.8095Z" fill="#1E2328"/>
<path d="M102.328 94.9508C100.901 98.2338 99.7157 100.971 99.696 101.051C99.6666 101.15 99.8251 101.183 100.395 101.191L101.124 101.201L101.857 99.4846L102.58 97.7784L104.964 97.7818L107.338 97.795L108.016 99.5209L108.695 101.257L109.423 101.297C110.049 101.326 110.152 101.307 110.126 101.177C110.108 101.097 109.004 98.3173 107.655 95.0053C105.989 90.9006 105.163 88.9831 105.07 88.9818C104.976 88.9905 104.082 90.9338 102.328 94.9508ZM105.207 92.0672C105.287 92.3777 105.983 94.2335 106.815 96.3607C106.851 96.461 106.448 96.4853 104.972 96.4647C103.495 96.444 103.094 96.4084 103.133 96.3092C103.72 94.9802 104.87 92.1523 104.91 91.9433C104.989 91.5652 105.082 91.6064 105.207 92.0672Z" fill="#1E2328"/>
<path d="M113.399 95.2356L113.318 101.371L113.982 101.381L114.636 101.39L114.667 96.8699L114.699 92.3598L115.074 92.9139C115.661 93.7704 122.101 101.644 122.25 101.676C122.362 101.708 122.393 100.77 122.461 95.5719L122.542 89.426L121.888 89.4169L121.224 89.4076L121.192 93.9875L121.16 98.5574L120.978 98.2155C120.749 97.8132 113.666 89.1022 113.554 89.1007C113.517 89.1002 113.443 91.8633 113.399 95.2356Z" fill="#1E2328"/>
<path d="M149.757 89.8067C146.98 90.5462 145.34 93.018 145.476 96.2331C145.62 99.4883 147.535 101.681 150.596 102.093C151.557 102.226 152.726 102.132 153.487 101.864C154.041 101.682 154.897 101.235 155.181 100.999L155.389 100.812L155.068 100.289C154.895 100.007 154.711 99.7452 154.665 99.7146C154.619 99.674 154.271 99.8288 153.885 100.033C153.018 100.52 152.277 100.719 151.371 100.706C149.53 100.681 148.112 99.7626 147.386 98.1259C146.66 96.4692 146.789 94.4253 147.724 92.9615C148.736 91.389 150.755 90.6788 152.702 91.195C153.037 91.2895 153.632 91.5473 154.03 91.7824C154.429 92.0175 154.763 92.1919 154.783 92.1622C154.801 92.1425 154.973 91.8854 155.173 91.5889L155.545 91.0452L155.323 90.8525C154.935 90.5078 154.034 90.0561 153.308 89.8464C152.358 89.5737 150.713 89.5606 149.757 89.8067Z" fill="#1E2328"/>
<path d="M162.608 89.9367C161.942 90.107 161.048 90.5635 160.453 91.0242C158.337 92.711 157.627 96.2236 158.863 98.9651C159.335 99.9996 159.804 100.595 160.674 101.226C162.202 102.345 164.348 102.634 166.226 101.972C168.949 101.002 170.485 97.9702 169.901 94.6989C169.51 92.4881 168.213 90.8933 166.139 90.0859C165.507 89.8276 163.377 89.7479 162.608 89.9367ZM165.356 91.3722C166.166 91.613 166.796 92.0011 167.367 92.6377C167.957 93.2846 168.33 94.0882 168.513 95.0387C168.661 95.889 168.655 96.338 168.476 97.2036C168.266 98.1986 167.893 98.9019 167.239 99.5813C166.367 100.487 165.361 100.902 164.081 100.884C162.801 100.866 161.806 100.423 160.959 99.4934C158.858 97.1988 159.444 93.1057 162.08 91.7155C163.049 91.2002 164.322 91.0683 165.356 91.3722Z" fill="#1E2328"/>
<path d="M209.223 90.529C208.397 90.737 207.612 91.4445 207.397 92.1899C207.231 92.7364 207.237 93.6845 207.407 94.2457C207.613 94.9172 208.185 95.5438 209.932 97.0152C211.698 98.5069 212.056 98.9709 212.046 99.779C212.042 100.048 211.982 100.387 211.905 100.535C211.3 101.734 209.448 101.868 207.61 100.845L206.989 100.497L206.653 101.17L206.326 101.844L207.041 102.214C209.232 103.342 211.655 103.206 212.766 101.895C213.288 101.283 213.464 100.667 213.431 99.5989C213.395 98.1015 213.028 97.5775 210.744 95.6994C209.986 95.0701 209.246 94.4311 209.108 94.2695C208.436 93.4717 208.562 92.4157 209.371 92.0279C210.058 91.7082 211.318 91.8655 212.236 92.3773L212.607 92.5821L212.934 91.8981L213.27 91.2143L212.778 90.9978C211.914 90.6065 211.308 90.4683 210.392 90.4655C209.906 90.4687 209.382 90.4913 209.223 90.529Z" fill="#1E2328"/>
<path d="M0.413333 93.7544L0.333862 99.7905L0.988035 99.7997L1.65155 99.8089L1.66095 96.965L1.67035 94.1212L4.03472 94.1541L6.38974 94.187L6.39828 93.5385L6.40682 92.89L4.05179 92.8571L1.68743 92.8241L1.71212 90.9484L1.73669 89.0827L4.28757 89.1482L6.8291 89.2136L6.83842 88.5052L6.84762 87.8068L3.67021 87.7625L0.492803 87.7182L0.413333 93.7544Z" fill="#1E2328"/>
<path d="M24.7342 92.3783C24.6859 96.0599 24.6952 96.7785 24.8199 97.2492C25.354 99.2824 26.7606 100.36 28.91 100.39C29.9568 100.395 30.4441 100.302 31.1404 99.9522C32.0437 99.4958 32.6898 98.6965 33.0976 97.5347C33.3112 96.929 33.3223 96.7894 33.4061 92.5396L33.4914 88.18L32.7905 88.1701L32.0896 88.1603L32.0054 92.4401L31.9213 96.7099L31.5852 97.3938C31.0092 98.5533 30.0582 99.0788 28.723 98.9703C27.5187 98.8637 26.6487 98.2029 26.2428 97.0796C26.0446 96.518 26.0367 96.4081 26.0627 92.2871L26.0899 88.0764L25.4357 88.0672L24.7909 88.0582L24.7342 92.3783Z" fill="#1E2328"/>
<path d="M50.6912 94.4679L50.6119 100.514L53.0235 100.508C55.323 100.5 55.4634 100.482 56.1769 100.243C57.9703 99.6291 59.2032 98.2692 59.7054 96.3304C59.9223 95.4652 59.9454 93.7093 59.7511 92.8483C59.4054 91.4065 58.6822 90.2488 57.654 89.5359C56.4034 88.6802 55.546 88.4886 52.7424 88.4494L50.7706 88.4218L50.6912 94.4679ZM55.9819 90.1711C57.5804 90.8721 58.4755 92.4713 58.448 94.5665C58.4173 96.9011 57.3306 98.5125 55.4545 99.0251C55.1918 99.1012 54.2934 99.1785 53.4612 99.2067L51.9371 99.2453L51.9992 94.5161L52.0612 89.787L53.7613 89.8706C55.2092 89.9408 55.5451 89.9854 55.9819 90.1711Z" fill="#1E2328"/>
<path d="M63.4015 94.6357L63.3223 100.672L66.5465 100.717L69.7706 100.762L69.7791 100.114L69.7876 99.4651L67.2457 99.4295L64.6944 99.3938L64.7252 97.0492L64.7559 94.7046L67.0269 94.7363L69.2884 94.768L69.2969 94.1195L69.3054 93.471L67.0439 93.4393L64.773 93.4075L64.7956 91.6815L64.8181 89.9654L67.3223 90.0304L69.8171 90.0953L69.8264 89.3869L69.8355 88.6885L66.6581 88.644L63.4807 88.5996L63.4015 94.6357Z" fill="#1E2328"/>
<path d="M73.4012 94.7656L73.3219 100.812L73.9761 100.821L74.6302 100.83L74.667 98.0265L74.7037 95.2329L75.1892 95.2696L75.6748 95.3064L77.6387 98.0781L79.6026 100.85L80.4993 100.892C81.2093 100.922 81.3684 100.904 81.295 100.804C78.3674 96.6812 77.541 95.552 77.3562 95.3898L77.1436 95.2072L77.7237 95.1654C79.0429 95.0641 80.1124 94.0512 80.3267 92.6771C80.4587 91.8807 80.3479 91.0608 80.0384 90.4278C79.729 89.7948 79.295 89.3896 78.6166 89.0907C78.1519 88.8846 77.9093 88.8513 75.7977 88.7918L73.4806 88.7195L73.4012 94.7656ZM78.2523 90.4927C79.2622 91.1754 79.1906 93.0704 78.1363 93.6344C77.8069 93.8094 77.5635 93.836 76.2454 93.8474L74.7218 93.8561L74.7464 91.9804L74.771 90.1047L76.331 90.1764C77.7695 90.2464 77.9281 90.2686 78.2523 90.4927Z" fill="#1E2328"/>
<path d="M126.577 95.5196L126.497 101.576L128.956 101.57C131.339 101.564 131.423 101.555 132.156 101.296C133.02 100.988 134.038 100.324 134.503 99.7618C134.978 99.1796 135.488 98.119 135.666 97.3432C135.864 96.4778 135.887 94.7417 135.711 93.9509C135.357 92.3793 134.44 91.0592 133.216 90.3535C132.102 89.6993 131.739 89.6343 129.067 89.5471L126.656 89.4634L126.577 95.5196ZM131.337 91.0457C133.378 91.5233 134.559 93.4259 134.394 95.9782C134.3 97.4737 133.799 98.5943 132.892 99.3301C132.013 100.056 130.907 100.32 128.851 100.291L127.87 100.278L127.932 95.5585L127.993 90.8493L129.442 90.8995C130.236 90.9206 131.095 90.9924 131.337 91.0457Z" fill="#1E2328"/>
<path d="M173.583 96.1873L173.503 102.233L175.915 102.227C178.214 102.219 178.355 102.201 179.068 101.962C181.434 101.167 182.732 99.1693 182.769 96.3058C182.799 94.031 182.073 92.3843 180.582 91.3057C179.341 90.4102 178.484 90.2086 175.634 90.1687L173.662 90.1411L173.583 96.1873ZM178.873 91.8905C179.924 92.3543 180.679 93.2031 181.093 94.4163C181.336 95.1382 181.409 96.7059 181.23 97.5117C180.872 99.1732 179.828 100.336 178.346 100.744C178.083 100.821 177.185 100.898 176.353 100.926L174.829 100.965L174.891 96.2355L174.953 91.5063L176.653 91.59C178.101 91.6602 178.437 91.7048 178.873 91.8905Z" fill="#1E2328"/>
<path d="M186.292 96.3552L186.213 102.391L189.437 102.436L192.661 102.482L192.67 101.833L192.678 101.185L190.136 101.149L187.585 101.113L187.616 98.7687L187.647 96.424L189.918 96.4558L192.179 96.4875L192.188 95.839L192.196 95.1904L189.935 95.1588L187.664 95.127L187.686 93.401L187.709 91.6849L190.213 91.7499L192.708 91.8147L192.717 91.1064L192.726 90.408L189.549 90.3635L186.371 90.319L186.292 96.3552Z" fill="#1E2328"/>
<path d="M196.291 96.4851L196.212 102.531L196.866 102.54L197.52 102.55L197.557 99.746L197.594 96.9524L198.079 96.9891L198.565 97.0259L200.529 99.7975L202.493 102.569L203.389 102.612C204.099 102.642 204.259 102.624 204.185 102.523C204.13 102.452 203.277 101.243 202.276 99.8419C201.285 98.451 200.366 97.2107 200.237 97.0991L199.997 96.8962L200.427 96.9022C201.118 96.9119 201.871 96.5632 202.429 95.9922C203.036 95.3621 203.259 94.7265 203.264 93.6688C203.272 92.3318 202.641 91.3051 201.507 90.8102C201.042 90.6041 200.799 90.5708 198.688 90.5113L196.371 90.439L196.291 96.4851ZM201.142 92.2121C202.143 92.8947 202.062 94.8295 201.007 95.3736C200.706 95.529 200.388 95.5645 199.136 95.5669L197.612 95.5756L197.637 93.6999L197.661 91.8242L199.221 91.8959C200.66 91.9659 200.818 91.9881 201.142 92.2121Z" fill="#1E2328"/>
</svg>
