<svg width="275" height="270" viewBox="0 0 275 270" fill="none" xmlns="http://www.w3.org/2000/svg">
<path fill-rule="evenodd" clip-rule="evenodd" d="M55.0347 64.6869C87.3956 83.6518 121.343 103.044 157.187 114.094C177.008 120.204 194.352 129.165 204.654 140.597C236.887 176.364 258.808 269 204.654 269C193.648 269 182.277 269.413 170.648 269.836C125.057 271.492 75.503 273.291 28.4692 250.911C0.771692 237.732 -4.84537 212.886 0.122603 187.718C3.02825 172.998 0.999945 157.504 0.999954 142.5V142.5C0.999955 134.302 0.533593 126.406 0.0892163 118.882C-1.36351 94.2839 -2.58114 73.6669 13.4999 59.5003C22.482 51.5875 38.3746 54.9234 55.0347 64.6869Z" fill="#9F918E"/>
</svg>
