<svg width="385" height="202" viewBox="0 0 385 202" fill="none" xmlns="http://www.w3.org/2000/svg">
<path fill-rule="evenodd" clip-rule="evenodd" d="M317.919 77.5543C360.268 54.63 385.5 -1.27536 364 -1.27542L254.636 -1.27539C235.565 -1.27539 219.205 -1.05102 206.213 -0.301888C182.422 -0.5077 118.365 -0.41128 70.3257 -0.338968C50.9842 -0.309849 34.239 -0.284637 23.763 -0.284642C12.6453 -0.284648 6.0055 -1.41406 5.04944 0.419767C3.38266 3.61679 18.9908 15.8201 58.263 58.7153C99.3782 103.624 139.994 105.761 181.767 91.3685C220.785 77.9254 263.204 85.6823 304.267 81.557C309.224 81.059 313.817 79.7748 317.919 77.5543Z" fill="#D1B0A1" fill-opacity="0.8"/>
</svg>
