<svg width="215" height="68" viewBox="0 0 215 68" fill="none" xmlns="http://www.w3.org/2000/svg">
<path d="M31.92 9.84C30.5333 8.50666 28.9067 7.57333 27.04 7.04C25.1733 6.45333 23.2533 6.16 21.28 6.16C18.4533 6.16 15.6 6.69333 12.72 7.76C9.84 8.77333 7.46667 10.1867 5.6 12C4.26667 13.7067 3.30667 15.5733 2.72 17.6C2.18667 19.5733 1.92 21.68 1.92 23.92C1.92 25.36 2.08 26.7733 2.4 28.16C2.72 29.4933 3.22667 30.7733 3.92 32C4.61333 33.1733 5.46667 34.24 6.48 35.2C7.54667 36.1067 8.77333 36.8267 10.16 37.36C11.28 37.7867 12.48 38.1067 13.76 38.32C15.0933 38.5333 16.3733 38.8 17.6 39.12C18.8267 39.44 19.9733 39.92 21.04 40.56C22.16 41.1467 23.0667 42.0533 23.76 43.28C24.08 43.76 24.24 44.24 24.24 44.72C24.24 46.4267 23.7333 47.8133 22.72 48.88C21.7067 49.8933 20.4 50.4 18.8 50.4C16.9867 50.4 15.52 49.6 14.4 48C14.1333 47.7867 13.9467 47.52 13.84 47.2C13.7867 46.88 13.7067 46.56 13.6 46.24C13.5467 45.8667 13.44 45.5467 13.28 45.28C13.12 45.0133 12.8533 44.8267 12.48 44.72C11.7333 44.8267 10.96 44.9067 10.16 44.96C9.41333 45.0133 8.66667 45.04 7.92 45.04C6.8 45.04 5.65333 45.0133 4.48 44.96C3.36 44.9067 2.21333 44.8267 1.04 44.72L0.56 45.12C0.666667 46.8267 0.88 48.48 1.2 50.08C1.57333 51.68 2.18667 53.1733 3.04 54.56C3.46667 55.04 3.86667 55.6 4.24 56.24C4.66667 56.8267 5.06667 57.4133 5.44 58C5.86667 58.5867 6.32 59.12 6.8 59.6C7.33333 60.08 7.94667 60.4267 8.64 60.64C10.4 61.0667 12.0267 61.4133 13.52 61.68C15.0133 61.8933 16.6667 62 18.48 62H19.36C19.84 62 20.16 61.9733 20.32 61.92C20.3733 61.9733 20.5333 62 20.8 62C21.12 62 21.4667 61.9733 21.84 61.92C22.2667 61.8133 22.64 61.76 22.96 61.76H23.28C24.4 60.96 25.4933 60.32 26.56 59.84L28.24 59.12C28.5067 59.0133 28.8 58.88 29.12 58.72C29.44 58.5067 29.76 58.2933 30.08 58.08H30.96C30.6933 58.5067 30.3467 58.8533 29.92 59.12C29.4933 59.3333 29.1467 59.6267 28.88 60C31.6 58.72 33.6 56.7733 34.88 54.16C36.2133 51.5467 36.88 48.64 36.88 45.44C36.88 42.88 36.56 40.7467 35.92 39.04C35.3333 37.3333 34.5067 35.8933 33.44 34.72C32.3733 33.5467 31.12 32.5333 29.68 31.68C28.2933 30.7733 26.8 29.84 25.2 28.88C24.4533 28.4533 23.4667 28.1867 22.24 28.08C21.0667 27.92 19.92 27.7067 18.8 27.44C17.68 27.1733 16.6933 26.72 15.84 26.08C15.04 25.44 14.64 24.4 14.64 22.96C14.64 22.0533 14.8533 21.2267 15.28 20.48C15.7067 19.7333 16.48 19.28 17.6 19.12L17.28 18.96C17.4933 18.7467 17.8667 18.6133 18.4 18.56C18.9333 18.5067 19.4133 18.48 19.84 18.48C21.0667 18.48 22.24 18.88 23.36 19.68C24.48 20.48 25.04 21.5733 25.04 22.96C25.04 23.3333 24.9333 23.6267 24.72 23.84C25.1467 24.16 25.7067 24.3733 26.4 24.48C27.1467 24.5333 27.92 24.56 28.72 24.56C30.2667 24.56 31.76 24.56 33.2 24.56C34.6933 24.5067 36.1333 24.2933 37.52 23.92C37.5733 23.4933 37.6 23.12 37.6 22.8C37.6533 22.4267 37.68 22.0267 37.68 21.6C37.68 19.3067 37.2267 17.1467 36.32 15.12C35.4133 13.0933 33.9467 11.3333 31.92 9.84ZM34.56 23.2C34.4533 23.2 34.3733 23.2267 34.32 23.28H34.24C33.9733 23.28 33.7067 23.2267 33.44 23.12C33.1733 23.0133 32.9067 22.96 32.64 22.96C32.1067 22.96 31.52 23.04 30.88 23.2C30.24 23.3067 29.6267 23.36 29.04 23.36C28.08 23.36 27.2533 23.28 26.56 23.12C26.3467 22.32 26.0267 21.52 25.6 20.72C25.1733 19.92 24.64 19.2267 24 18.64C23.36 18 22.6133 17.4933 21.76 17.12C20.96 16.6933 20.0533 16.48 19.04 16.48C17.9733 16.48 17.0933 16.6933 16.4 17.12C15.7067 17.4933 15.1467 18 14.72 18.64C14.3467 19.2267 14.08 19.92 13.92 20.72C13.76 21.4667 13.68 22.1867 13.68 22.88C13.68 23.7867 13.8133 24.7467 14.08 25.76C14.3467 26.7733 14.9867 27.52 16 28L23.76 31.28C25.2533 31.92 26.6933 32.56 28.08 33.2C29.4667 33.84 30.6667 34.64 31.68 35.6C32.7467 36.56 33.5733 37.7333 34.16 39.12C34.8 40.5067 35.12 42.2667 35.12 44.4C35.12 45.7333 34.96 47.04 34.64 48.32C34.3733 49.5467 34 50.6933 33.52 51.76C31.8133 54.0533 29.7867 56.0533 27.44 57.76C25.0933 59.4667 22.4267 60.32 19.44 60.32C18.8 60.32 18.2133 60.24 17.68 60.08C17.1467 59.8667 16.64 59.76 16.16 59.76H15.76C15.3867 59.76 15.12 59.68 14.96 59.52C14.7467 59.7333 14.4533 59.84 14.08 59.84C13.1733 59.84 12.1867 59.6267 11.12 59.2C10.1067 58.7733 9.12 58.24 8.16 57.6C7.2 56.9067 6.34667 56.1333 5.6 55.28C4.85333 54.3733 4.32 53.44 4 52.48C3.89333 52.48 3.76 52.2667 3.6 51.84C3.44 51.4133 3.28 50.9067 3.12 50.32C3.01333 49.7333 2.90667 49.12 2.8 48.48C2.69333 47.84 2.61333 47.3067 2.56 46.88C2.66667 46.9333 2.88 46.96 3.2 46.96H3.92C4.93333 46.96 5.92 46.88 6.88 46.72C7.89333 46.56 8.93333 46.48 10 46.48C11.0133 46.48 11.84 46.5867 12.48 46.8C12.8 47.28 13.12 47.7867 13.44 48.32C13.76 48.8533 14.1333 49.36 14.56 49.84C15.04 50.2667 15.6 50.6133 16.24 50.88C16.88 51.1467 17.68 51.28 18.64 51.28C19.6 51.28 20.5067 51.0933 21.36 50.72C22.2133 50.3467 22.96 49.8667 23.6 49.28C24.24 48.64 24.7467 47.9467 25.12 47.2C25.4933 46.4 25.68 45.6 25.68 44.8C25.68 44.1067 25.52 43.44 25.2 42.8C24.3467 41.4133 23.3067 40.3467 22.08 39.6C20.8533 38.8 19.52 38.16 18.08 37.68C16.6933 37.2 15.2533 36.8267 13.76 36.56C12.2667 36.24 10.8 35.8667 9.36 35.44C9.09333 35.3333 8.82667 35.1467 8.56 34.88C8.34667 34.6133 8.24 34.3467 8.24 34.08C6.74667 32.8533 5.57333 31.4667 4.72 29.92C3.86667 28.3733 3.44 26.7467 3.44 25.04C3.44 23.9733 3.46667 23.2533 3.52 22.88C3.57333 22.5067 3.76 21.8667 4.08 20.96C4.45333 19.9467 4.88 18.72 5.36 17.28C5.84 15.7867 6.69333 14.48 7.92 13.36L7.76 12.88C7.49333 13.04 7.17333 13.28 6.8 13.6C6.48 13.92 6.32 14.16 6.32 14.32C6.32 14.16 6.42667 13.8933 6.64 13.52C6.90667 13.0933 7.22667 12.6667 7.6 12.24C7.97333 11.8133 8.37333 11.4133 8.8 11.04C9.28 10.6667 9.73333 10.4267 10.16 10.32C9.84 10.7467 9.44 11.0667 8.96 11.28C8.53333 11.44 8.32 11.6267 8.32 11.84C8.32 11.9467 8.37333 12 8.48 12C8.69333 12 8.98667 11.7867 9.36 11.36C9.73333 10.88 10.2133 10.64 10.8 10.64C11.6 9.84 12.88 9.2 14.64 8.72C16.4 8.24 18.1067 8 19.76 8H20.64C20.8 8 21.0933 8.05333 21.52 8.16C22.9067 8.58666 24.3467 9.09333 25.84 9.68C27.3333 10.2667 28.72 10.9867 30 11.84C31.28 12.6933 32.4 13.7333 33.36 14.96C34.32 16.1333 34.9333 17.52 35.2 19.12C35.3067 19.8667 35.3333 20.5333 35.28 21.12C35.28 21.6533 35.3067 22.2133 35.36 22.8L34.56 23.2ZM55.7881 4.32C55.6815 4.58667 55.6015 4.88 55.5481 5.2C55.5481 5.46666 55.4148 5.70666 55.1481 5.92C54.1348 5.92 53.0948 6 52.0281 6.16C51.0148 6.26666 49.9748 6.32 48.9081 6.32C47.6815 6.32 46.7215 6.21333 46.0281 6L46.1081 5.68C45.8948 5.73333 45.7081 5.76 45.5481 5.76C45.4415 5.76 45.3615 5.76 45.3081 5.76H44.5081H44.1881C44.2415 5.76 44.0548 5.89333 43.6281 6.16C43.2548 6.42667 43.0681 6.74666 43.0681 7.12H43.3081C43.4681 7.70666 43.5481 8.29333 43.5481 8.88C43.5481 9.52 43.4948 10.1867 43.3881 10.88C43.3348 11.52 43.3081 12.16 43.3081 12.8C43.3081 13.0667 43.3081 13.44 43.3081 13.92C43.3615 14.4 43.3881 15.0133 43.3881 15.76C43.3881 16.4533 43.3348 16.96 43.2281 17.28C43.1748 17.5467 43.1481 17.84 43.1481 18.16C43.0948 18.1067 43.0681 18.0533 43.0681 18L42.9881 18.48L43.3081 18.56C42.9348 19.6267 42.7481 20.72 42.7481 21.84C42.7481 22.96 42.7215 24.08 42.6681 25.2C42.7748 26.9067 42.8548 28.56 42.9081 30.16C42.9615 31.7067 42.9881 33.28 42.9881 34.88C42.9881 39.4133 42.8548 43.8933 42.5881 48.32C42.3215 52.6933 42.1081 57.3067 41.9481 62.16L42.2681 62C42.3748 62 42.4548 62.1067 42.5081 62.32C42.5615 62.5333 42.7215 62.64 42.9881 62.64V62.72C42.9881 62.7733 43.0415 62.8 43.1481 62.8C43.2548 62.8 43.6015 62.6933 44.1881 62.48C44.8281 62.2667 45.2281 62.1067 45.3881 62L45.7081 61.84H45.8681C45.9748 61.84 46.1881 61.8667 46.5081 61.92C46.8815 61.92 47.3615 61.92 47.9481 61.92H50.8281C52.4815 61.92 53.6548 62 54.3481 62.16C55.0948 62.3733 55.7615 62.48 56.3481 62.48C56.4548 62.48 56.6148 62.4533 56.8281 62.4C57.0948 62.3467 57.2281 62.2133 57.2281 62L56.6681 60.88C56.3481 58.16 56.1348 55.4667 56.0281 52.8C55.9215 50.1333 55.8148 47.44 55.7081 44.72C55.7081 43.8133 55.7615 42.5067 55.8681 40.8C56.0281 39.04 56.1081 36.88 56.1081 34.32V31.84C56.1081 31.4133 56.1081 30.9867 56.1081 30.56C56.1081 30.1333 56.0815 29.7067 56.0281 29.28C56.1881 27.4667 56.2681 25.6 56.2681 23.68C56.2681 22.1333 56.2415 20.6133 56.1881 19.12C56.1348 17.5733 56.1081 16.08 56.1081 14.64C56.1081 13.4133 56.1348 12.2133 56.1881 11.04C56.2415 9.86666 56.3748 8.69333 56.5881 7.52V7.28C56.5881 6.90666 56.7748 6.69333 57.1481 6.64C57.5215 6.58666 57.7081 6.37333 57.7081 6H56.5881C56.3215 5.78666 56.1615 5.52 56.1081 5.2C56.0548 4.82667 55.9481 4.53333 55.7881 4.32ZM54.5081 14.48C54.4548 14.4267 54.4015 14.4 54.3481 14.4C54.4015 14.7733 54.4281 15.1733 54.4281 15.6C54.4281 15.9733 54.4281 16.3733 54.4281 16.8V20.64C54.4281 21.76 54.4015 22.9067 54.3481 24.08C54.2948 25.2533 54.2415 26.3733 54.1881 27.44C54.1881 28.4533 54.1615 29.3867 54.1081 30.24C54.0548 31.04 54.0281 31.6267 54.0281 32L53.8681 31.92C53.8681 31.8667 53.8148 31.7867 53.7081 31.68C53.6548 31.7333 53.6281 32 53.6281 32.48C53.7348 33.5467 53.8148 34.3733 53.8681 34.96C53.9215 35.5467 53.9481 35.9733 53.9481 36.24C53.9481 36.5067 53.9215 36.64 53.8681 36.64H53.7881C54.0015 37.3333 54.1081 37.8933 54.1081 38.32C54.1081 38.3733 54.0548 38.56 53.9481 38.88C53.8948 38.8267 53.8415 38.8 53.7881 38.8C53.6281 39.12 53.5481 39.44 53.5481 39.76C53.7081 40.8267 53.7881 41.5733 53.7881 42C53.6815 43.3333 53.6015 44.5333 53.5481 45.6C53.5481 46.6667 53.5481 47.6533 53.5481 48.56V52.24C53.5481 52.7733 53.5215 53.04 53.4681 53.04V53.44L53.7081 53.36V56.32C53.7081 56.9067 53.6815 57.4933 53.6281 58.08C53.6281 58.6667 53.5748 59.2533 53.4681 59.84C53.3081 59.68 53.1748 59.6267 53.0681 59.68C52.9615 59.68 52.7748 59.52 52.5081 59.2C52.5081 59.6267 52.0015 59.84 50.9881 59.84C49.9748 59.84 48.2681 59.8667 45.8681 59.92C45.6548 59.5467 45.5481 58.9867 45.5481 58.24C45.5481 57.76 45.5748 57.28 45.6281 56.8C45.7348 56.32 45.7881 55.84 45.7881 55.36C45.7881 54.9333 45.7615 54.4267 45.7081 53.84C45.7081 53.2 45.6815 52.56 45.6281 51.92C45.6281 51.2267 45.6015 50.56 45.5481 49.92C45.4948 49.2267 45.4415 48.6133 45.3881 48.08V47.44L45.4681 47.6V47.52C45.4681 47.3067 45.4148 46.8 45.3081 46C45.2548 45.1467 45.1748 44.1333 45.0681 42.96C44.9615 41.7333 44.8548 40.4267 44.7481 39.04C44.6948 37.6533 44.6681 36.2667 44.6681 34.88C44.6681 33.6533 44.6681 32.1067 44.6681 30.24C44.7215 28.3733 44.7481 26.48 44.7481 24.56C44.8015 22.64 44.8548 20.8267 44.9081 19.12C45.0148 17.4133 45.1215 16.1067 45.2281 15.2C45.5481 15.2 45.7081 14.48 45.7081 13.04C45.4415 12.7733 45.3081 12.5333 45.3081 12.32C45.3081 12.2133 45.3081 12.08 45.3081 11.92C45.3615 11.76 45.3881 11.6267 45.3881 11.52L45.4681 11.68C45.6815 11.52 45.7881 11.2533 45.7881 10.88C45.7881 10.6667 45.7615 10.48 45.7081 10.32C45.7081 10.1067 45.7081 9.92 45.7081 9.76C46.0815 10.0267 46.2681 10.16 46.2681 10.16L46.0281 9.44C45.9748 9.17333 45.9215 8.93333 45.8681 8.72C45.8681 8.50667 45.8681 8.34666 45.8681 8.24C45.8681 7.76 46.1081 7.52 46.5881 7.52H48.0281C49.0948 7.52 50.1348 7.6 51.1481 7.76C52.1615 7.86666 53.2015 8.02666 54.2681 8.24C54.3215 8.50666 54.3481 8.74666 54.3481 8.96C54.4015 9.17333 54.4281 9.36 54.4281 9.52V13.68L54.3481 13.6L54.1881 13.76C54.1881 13.8667 54.2415 13.9733 54.3481 14.08C54.4548 14.1333 54.5081 14.2133 54.5081 14.32V14.48ZM96.5638 50.64C94.3238 50.8 92.0838 50.88 89.8438 50.88C87.6038 50.88 85.3638 50.8533 83.1238 50.8C80.8838 50.6933 78.5638 50.64 76.1638 50.64L75.8438 50.48C75.8438 50.3733 75.8704 50.32 75.9238 50.32C75.9771 50.2667 76.0304 50.1867 76.0838 50.08C75.8704 49.28 75.7638 48.1333 75.7638 46.64V41.12L76.0038 40.72C76.1638 40.56 76.2438 40.4267 76.2438 40.32C76.2438 40.2667 76.5638 40.24 77.2038 40.24C77.8438 40.1867 78.5638 40.16 79.3638 40.16C80.2171 40.1067 80.9904 40.08 81.6838 40.08C82.4304 40.08 82.8838 40.08 83.0438 40.08H82.8838C84.0038 40.08 84.9371 40.16 85.6838 40.32C85.6838 38.88 85.6838 37.3867 85.6838 35.84C85.7371 34.24 85.7638 32.8267 85.7638 31.6C85.7638 29.9467 85.6838 28.96 85.5238 28.64L75.8438 28.56L75.5238 28.24C75.4704 27.8667 75.4171 27.52 75.3638 27.2C75.3638 26.8267 75.3638 26.4533 75.3638 26.08C75.3638 25.1733 75.3904 24.2933 75.4438 23.44C75.5504 22.5867 75.6038 21.7067 75.6038 20.8C75.6038 20.5333 75.5771 20.2933 75.5238 20.08C75.5238 19.8133 75.5238 19.5467 75.5238 19.28L75.6838 18.96L84.8838 18.72C85.2038 18.7733 85.5238 18.8267 85.8438 18.88C86.1638 18.88 86.4571 18.88 86.7238 18.88C89.4438 18.7733 91.6038 18.6667 93.2038 18.56C94.8571 18.4533 96.0304 18.3467 96.7238 18.24V17.84C96.7238 17.5733 96.7238 17.28 96.7238 16.96C96.7771 16.64 96.8304 16.3467 96.8838 16.08C96.8304 15.92 96.8038 15.6267 96.8038 15.2V14.24C96.8038 13.4933 96.8038 12.7467 96.8038 12C96.8571 11.2533 96.8838 10.5067 96.8838 9.76C96.8838 9.22666 96.8571 8.72 96.8038 8.24C96.8038 7.70666 96.7504 7.2 96.6438 6.72C96.9638 6.4 97.1238 6.16 97.1238 6C97.1238 5.78666 97.0171 5.65333 96.8038 5.6C95.8971 5.70667 95.0171 5.78667 94.1638 5.84C93.3104 5.89333 92.4304 5.92 91.5238 5.92V6.08H91.9238C92.1904 6.08 92.4571 6.08 92.7238 6.08C93.0438 6.02666 93.3371 6 93.6038 6C94.1904 6 94.6971 6.13333 95.1238 6.4L94.8838 6.56C92.2171 6.72 89.4438 6.8 86.5638 6.8C85.4971 6.8 84.4838 6.8 83.5238 6.8C82.6171 6.74666 81.4171 6.72 79.9238 6.72H77.5238C76.9371 6.72 76.5371 6.64 76.3238 6.48C73.0171 6.58666 70.5638 6.66666 68.9638 6.72C67.3638 6.72 66.2438 6.72 65.6038 6.72C64.9638 6.72 64.5904 6.74666 64.4838 6.8C64.4304 6.85333 64.2438 6.96 63.9238 7.12C63.7638 8.56 63.6571 10.0533 63.6038 11.6C63.5504 13.1467 63.5238 14.6933 63.5238 16.24C63.5238 18.96 63.4704 21.6267 63.3638 24.24C63.2571 26.8 63.2038 29.28 63.2038 31.68C63.2038 34.72 63.3104 37.76 63.5238 40.8C63.7371 43.7867 63.8438 46.88 63.8438 50.08C63.8438 50.88 63.8171 51.68 63.7638 52.48C63.7638 53.28 63.7371 54.1067 63.6838 54.96C63.7371 55.0667 63.7638 55.28 63.7638 55.6V56.24C63.7638 56.72 63.7371 57.2 63.6838 57.68C63.6304 58.16 63.6038 58.64 63.6038 59.12C63.6038 59.3867 63.6038 59.6267 63.6038 59.84C63.6571 60.0533 63.7104 60.2933 63.7638 60.56C63.7104 60.6667 63.6838 60.8 63.6838 60.96C63.6838 61.0133 63.6571 61.0667 63.6038 61.12C63.6038 61.3333 63.9504 61.5467 64.6438 61.76C65.3904 61.92 66.7771 62 68.8038 62C69.7638 62 70.5638 61.9467 71.2038 61.84C71.8971 61.7333 72.5904 61.68 73.2838 61.68H74.0038C74.3771 61.68 74.6171 61.7067 74.7238 61.76L96.2438 61.68L96.7238 61.12C96.7238 59.84 96.7771 58.6133 96.8838 57.44C96.9904 56.2133 97.0438 54.9867 97.0438 53.76L96.8838 51.04L96.5638 50.64ZM93.0438 60.16C87.0704 60.2667 82.5904 60.3467 79.6038 60.4C76.6171 60.4533 75.0971 60.48 75.0438 60.48C74.9371 60.48 74.8038 60.4533 74.6438 60.4C74.4838 60.3467 74.3504 60.32 74.2438 60.32H69.5238C69.0971 60.32 68.6704 60.3733 68.2438 60.48C67.8171 60.5333 67.3904 60.56 66.9638 60.56C66.5904 60.56 66.2171 60.48 65.8438 60.32C65.8438 59.8933 65.8704 59.3067 65.9238 58.56C65.9771 57.76 66.0571 56.8267 66.1638 55.76V55.04C66.1638 54.6667 66.1371 54.4267 66.0838 54.32C66.1371 54.3733 66.1904 54.4 66.2438 54.4C66.4571 54.4 66.5638 54.1867 66.5638 53.76C66.5638 53.5467 66.4838 53.2533 66.3238 52.88C66.1638 52.5067 65.9771 52.16 65.7638 51.84C65.5504 51.4667 65.3638 51.1467 65.2038 50.88C65.0438 50.6133 64.9638 50.4267 64.9638 50.32C64.9638 50.2667 64.9904 50.24 65.0438 50.24V49.92C65.4704 48.6933 65.7104 47.84 65.7638 47.36C65.7104 47.04 65.6838 46.72 65.6838 46.4C65.7371 46.0267 65.7104 45.7067 65.6038 45.44L65.3638 45.52C65.3638 45.4133 65.4171 45.28 65.5238 45.12C65.6838 44.9067 65.7638 44.6933 65.7638 44.48C65.7638 44.3733 65.7371 44.32 65.6838 44.32L65.7638 44.16C65.8704 44.16 65.9238 44.1867 65.9238 44.24C65.9238 44.2933 65.9771 44.32 66.0838 44.32C66.1904 44.32 66.2704 44.1867 66.3238 43.92C66.3771 43.6 66.4038 43.36 66.4038 43.2C66.4038 42.56 66.3238 42 66.1638 41.52C66.0038 41.6267 65.9238 41.76 65.9238 41.92C65.9238 42.0267 65.9238 42.1333 65.9238 42.24C65.9771 42.2933 66.0038 42.3733 66.0038 42.48H65.9238C65.8171 42.48 65.7638 42.5333 65.7638 42.64C65.7638 42.6933 65.7104 42.7733 65.6038 42.88C65.4971 42.8267 65.4171 42.8267 65.3638 42.88C65.3104 42.88 65.2838 42.8267 65.2838 42.72C65.2838 42.6133 65.2571 42.3733 65.2038 42C65.2038 41.5733 65.1771 40.88 65.1237 39.92V36.16C65.6038 34.24 65.8438 32.72 65.8438 31.6C65.8438 30.8533 65.7904 30.2133 65.6838 29.68C65.5771 29.0933 65.5238 28.64 65.5238 28.32C65.5771 28.0533 65.6038 27.8133 65.6038 27.6C65.6038 27.3867 65.6038 27.1733 65.6038 26.96C65.6038 26.4267 65.4971 26.0533 65.2838 25.84C65.1238 25.6267 65.0438 25.3867 65.0438 25.12V24.4V20.64C65.0438 19.9467 64.9638 18.4 64.8038 16C64.8038 15.6267 64.8304 15.3867 64.8838 15.28L64.7238 9.84L64.9638 9.28C67.5771 8.85333 70.1371 8.50666 72.6438 8.24C75.2038 7.97333 77.7638 7.84 80.3238 7.84C81.3371 7.84 82.4038 7.86666 83.5238 7.92C84.6438 7.97333 85.6038 8 86.4038 8C87.0971 8 87.5504 8 87.7638 8C88.0304 7.94666 88.5371 7.92 89.2838 7.92C90.3504 7.92 91.1771 7.97333 91.7638 8.08C92.4038 8.13333 93.0171 8.16 93.6038 8.16C94.1904 8.16 94.7238 8.08 95.2038 7.92L95.3638 8.16L95.5238 16.88C95.0971 16.9867 94.6971 17.0667 94.3238 17.12C94.0038 17.12 93.6571 17.1467 93.2838 17.2C89.2838 17.3067 86.0571 17.4133 83.6038 17.52C81.1504 17.5733 79.3904 17.6 78.3238 17.6H77.2038C76.6704 17.7067 76.1638 17.7867 75.6838 17.84C75.2571 17.8933 74.8571 17.92 74.4838 17.92H74.0038L73.7638 18.4C73.7104 18.56 73.6838 18.88 73.6838 19.36C73.7371 20.9067 73.7638 22.1867 73.7638 23.2C73.8171 24.2133 73.8438 24.9333 73.8438 25.36L73.6838 28C73.8971 28.16 74.0038 28.4 74.0038 28.72L74.0838 29.6C74.1371 29.8667 74.2171 30.1067 74.3238 30.32C74.4304 30.5333 74.6704 30.64 75.0438 30.64C75.0971 30.32 75.4171 30.16 76.0038 30.16C76.8571 30.16 77.6838 30.2133 78.4838 30.32C79.2838 30.4267 80.0838 30.48 80.8838 30.48C81.7904 30.48 82.6971 30.4 83.6038 30.24C83.8171 30.24 83.9771 30.4 84.0838 30.72C84.2438 31.04 84.3504 31.44 84.4038 31.92C84.4571 32.3467 84.4838 32.7733 84.4838 33.2C84.5371 33.6267 84.5638 33.9467 84.5638 34.16C84.5638 34.3733 84.5371 34.8 84.4838 35.44C84.4838 36.08 84.4571 36.9333 84.4038 38C84.4038 38.32 84.4304 38.5333 84.4838 38.64H84.0038C84.0038 38.48 83.8971 38.4 83.6838 38.4C83.3104 38.4533 82.5904 38.5333 81.5238 38.64C80.4571 38.6933 79.3371 38.7733 78.1638 38.88C77.0438 38.9333 76.0304 39.0133 75.1238 39.12C74.2704 39.2267 73.8438 39.36 73.8438 39.52C73.8438 39.6267 73.7904 39.76 73.6838 39.92C73.6304 40.0267 73.6038 40.7733 73.6038 42.16C73.6038 42.7467 73.6571 43.28 73.7638 43.76C73.9238 44.1867 74.0038 44.6933 74.0038 45.28V49.84C74.0038 50.48 74.0304 50.88 74.0838 51.04L74.5638 51.44L74.4838 51.52C74.8038 51.8933 75.2304 52.08 75.7638 52.08H80.7238C82.9638 52.08 85.0971 52.1067 87.1238 52.16C89.2038 52.16 91.3638 52.1867 93.6038 52.24C93.7638 52.0267 93.9771 51.92 94.2438 51.92C94.3504 51.92 94.4571 51.9467 94.5638 52C94.6704 52 94.7771 52 94.8838 52C95.0971 52 95.2838 51.92 95.4438 51.76C95.4438 52.5067 95.4704 53.3067 95.5238 54.16C95.6304 55.0133 95.6838 55.8667 95.6838 56.72C95.6838 58.0533 95.5771 59.12 95.3638 59.92C94.7771 59.9733 94.0038 60.0533 93.0438 60.16ZM116.919 45.76C117.239 46.9333 117.506 47.52 117.719 47.52C117.773 47.52 117.799 47.4933 117.799 47.44L118.599 49.68C119.293 51.92 119.799 53.68 120.119 54.96C120.493 56.24 120.813 57.28 121.079 58.08C121.399 58.8267 121.746 59.4667 122.119 60C122.546 60.5333 123.186 61.2267 124.039 62.08C124.093 62.1867 124.146 62.2667 124.199 62.32C124.306 62.3733 124.359 62.4533 124.359 62.56L124.759 62.16C125.186 62.1067 125.639 62.0533 126.119 62C126.599 62 127.079 62 127.559 62C128.253 62 128.919 62 129.559 62C130.199 62.0533 130.866 62.08 131.559 62.08H132.599C133.239 61.8667 133.719 61.7067 134.039 61.6C134.359 61.44 134.573 61.3333 134.679 61.28C134.839 61.2267 134.919 61.2 134.919 61.2C134.973 61.1467 134.999 61.12 134.999 61.12C134.893 60.8 134.813 59.9467 134.759 58.56C134.759 57.1733 134.706 55.7067 134.599 54.16C134.706 52.6133 134.759 51.12 134.759 49.68C134.813 48.1867 134.839 46.6667 134.839 45.12C134.839 42.08 134.813 39.12 134.759 36.24C134.706 33.3067 134.679 30.32 134.679 27.28C134.679 24.88 134.733 22.5333 134.839 20.24C134.999 17.9467 135.079 15.6 135.079 13.2C135.079 12.1333 135.053 11.0667 134.999 10C134.946 8.93333 134.866 7.86666 134.759 6.8C134.813 6.74666 134.839 6.69333 134.839 6.64C134.839 6.53333 134.759 6.42667 134.599 6.32C134.493 6.21333 134.439 6.08 134.439 5.92C134.439 5.86666 134.493 5.78666 134.599 5.68C134.706 5.52 134.786 5.44 134.839 5.44L134.919 5.2C134.119 4.93333 133.559 4.8 133.239 4.8L133.159 4.88C133.106 4.88 133.026 4.88 132.919 4.88C132.813 4.82666 132.706 4.8 132.599 4.8C131.533 4.8 130.599 4.82666 129.799 4.88C129.053 4.93333 128.359 4.98666 127.719 5.04C127.133 5.04 126.546 5.06667 125.959 5.12C125.426 5.17333 124.839 5.2 124.199 5.2C123.933 5.2 123.666 5.2 123.399 5.2C123.186 5.14666 122.946 5.09333 122.679 5.04C122.359 5.41333 122.226 5.89333 122.279 6.48C122.386 7.06667 122.333 7.49333 122.119 7.76C122.226 8.18666 122.279 8.42666 122.279 8.48C122.279 8.42666 122.279 8.96 122.279 10.08C122.333 11.2 122.359 12.4533 122.359 13.84C122.413 15.2267 122.439 16.5067 122.439 17.68C122.493 18.8 122.519 19.3333 122.519 19.28L122.359 19.04C122.519 20.32 122.653 21.3067 122.759 22C122.866 22.64 122.919 23.1733 122.919 23.6C122.973 23.9733 122.999 24.2933 122.999 24.56C123.053 24.8267 123.079 25.2 123.079 25.68L122.919 25.52C122.866 25.5733 122.839 25.68 122.839 25.84C122.839 25.9467 122.866 26.08 122.919 26.24C122.973 26.3467 122.999 26.4533 122.999 26.56C122.999 26.72 122.919 26.8267 122.759 26.88C122.386 26.4533 122.093 26.0533 121.879 25.68C121.719 25.2533 121.426 24.8267 120.999 24.4C121.053 24.3467 121.106 24.32 121.159 24.32L120.839 24C120.839 23.36 120.599 22.8 120.119 22.32C119.639 21.84 119.319 21.3067 119.159 20.72C118.999 20.56 118.839 20.2133 118.679 19.68C118.519 19.1467 118.333 18.56 118.119 17.92C117.906 17.28 117.719 16.6667 117.559 16.08C117.399 15.4933 117.239 15.0933 117.079 14.88C116.599 14.1333 116.066 13.3867 115.479 12.64C114.946 11.8933 114.573 11.2267 114.359 10.64C114.306 10.4267 114.119 10.0267 113.799 9.44C113.533 8.8 113.186 8.13333 112.759 7.44C112.333 6.74666 111.853 6.13333 111.319 5.6C110.839 5.06666 110.359 4.8 109.879 4.8C109.026 4.8 108.199 4.93333 107.399 5.2C106.599 5.41333 105.826 5.52 105.079 5.52C104.653 5.52 104.226 5.49333 103.799 5.44C103.373 5.33333 102.999 5.28 102.679 5.28C102.146 5.28 101.693 5.38666 101.319 5.6C100.999 5.81333 100.839 6.29333 100.839 7.04V9.12C100.839 10.4 100.786 11.7067 100.679 13.04C100.573 14.32 100.519 15.6 100.519 16.88V17.68C100.519 18.1067 100.546 18.3733 100.599 18.48C100.599 18.5867 100.573 19.4933 100.519 21.2C100.519 22.8533 100.493 24.9067 100.439 27.36C100.439 29.76 100.413 32.3733 100.359 35.2C100.359 37.9733 100.333 40.5333 100.279 42.88C100.279 45.2267 100.253 47.1733 100.199 48.72C100.199 50.2133 100.199 50.9067 100.199 50.8C100.413 51.28 100.519 52.0533 100.519 53.12C100.519 53.5467 100.493 53.9467 100.439 54.32C100.386 54.6933 100.359 55.0933 100.359 55.52C100.359 56.16 100.386 56.88 100.439 57.68C100.546 58.4267 100.599 59.1733 100.599 59.92C100.599 60.7733 100.519 61.44 100.359 61.92C100.359 62.0267 100.413 62.08 100.519 62.08C100.679 62.08 100.759 62.0533 100.759 62L101.319 62.4L102.279 62C102.546 61.8933 102.813 61.8667 103.079 61.92C103.346 61.92 103.613 61.8933 103.879 61.84C104.466 62.0533 105.186 62.1067 106.039 62C106.893 61.9467 108.093 62.0267 109.639 62.24C110.333 62.0267 110.866 61.92 111.239 61.92C111.346 61.92 111.426 61.9733 111.479 62.08C111.586 62.1867 111.719 62.24 111.879 62.24C112.146 62.24 112.439 62.08 112.759 61.76L112.999 62.24C113.106 61.7067 113.159 61.44 113.159 61.44V60.8C113.159 60.48 113.106 60.2667 112.999 60.16C112.946 60 112.919 59.76 112.919 59.44C112.919 59.2267 112.999 58.8 113.159 58.16C112.999 56.56 112.919 55.4133 112.919 54.72C112.919 54.2933 112.999 53.7067 113.159 52.96C113.319 52.2133 113.399 51.6 113.399 51.12C113.399 50.96 113.373 50.8533 113.319 50.8C113.373 50.64 113.399 50.32 113.399 49.84V45.28C113.399 45.12 113.373 44.8 113.319 44.32C113.319 43.7867 113.293 43.2267 113.239 42.64C113.186 42.0533 113.133 41.4933 113.079 40.96C113.079 40.3733 113.079 39.9733 113.079 39.76V38.88C113.079 38.3467 113.159 37.92 113.319 37.6L116.839 44.64L116.919 45.76ZM133.239 60.64C132.973 60.64 132.706 60.6667 132.439 60.72C132.173 60.7733 131.906 60.8 131.639 60.8C131.266 60.8 130.999 60.72 130.839 60.56C130.199 60.72 129.506 60.8 128.759 60.8C128.013 60.8 127.293 60.7733 126.599 60.72C125.906 60.6133 125.186 60.56 124.439 60.56C123.853 59.0133 123.319 57.68 122.839 56.56C122.359 55.3867 121.906 54.2933 121.479 53.28C121.053 52.2133 120.626 51.12 120.199 50C119.773 48.88 119.293 47.5467 118.759 46C118.493 45.8933 118.386 45.7333 118.439 45.52C118.546 45.2533 118.466 45.04 118.199 44.88L117.799 43.84C117.853 43.7867 117.879 43.68 117.879 43.52C117.879 43.36 117.799 43.2267 117.639 43.12C117.479 42.96 117.346 42.7467 117.239 42.48C117.026 41.68 116.706 40.96 116.279 40.32C115.906 39.6267 115.506 38.96 115.079 38.32C114.706 37.68 114.333 37.04 113.959 36.4C113.639 35.7067 113.426 34.9333 113.319 34.08C113.266 34.08 113.213 34.08 113.159 34.08C113.106 34.0267 113.053 34 112.999 34C112.626 34 112.359 34.1333 112.199 34.4C112.039 34.6133 111.906 34.9067 111.799 35.28C111.746 35.6 111.719 35.9467 111.719 36.32C111.719 36.6933 111.693 37.04 111.639 37.36L111.799 37.6C111.799 40.16 111.826 42.4267 111.879 44.4C111.933 46.32 111.959 48.2133 111.959 50.08C111.959 51.3067 111.959 52.5333 111.959 53.76C111.959 54.9867 111.853 56.2133 111.639 57.44L111.239 59.76C111.133 59.76 111.053 59.84 110.999 60C110.999 60.1067 111.026 60.2133 111.079 60.32C111.186 60.4267 111.239 60.56 111.239 60.72C109.799 61.04 108.279 61.2 106.679 61.2C105.879 61.2 105.106 61.1733 104.359 61.12C103.666 61.0667 103.026 60.9867 102.439 60.88C102.173 57.9467 102.039 54.7467 102.039 51.28C102.093 47.76 102.066 44.4 101.959 41.2C101.853 40.9867 101.773 40.2933 101.719 39.12C101.719 37.9467 101.719 36.5067 101.719 34.8C101.719 33.2 101.746 31.6267 101.799 30.08C101.906 28.5333 101.959 26.9867 101.959 25.44C101.959 25.0133 101.933 24.6133 101.879 24.24C101.879 23.8133 101.879 23.3867 101.879 22.96L102.119 22.64C102.173 20.9867 102.333 15.8667 102.599 7.28C103.719 7.17333 104.813 6.98666 105.879 6.72C106.946 6.45333 108.066 6.32 109.239 6.32C109.453 6.32 109.639 6.34666 109.799 6.4C110.013 6.4 110.226 6.4 110.439 6.4C111.933 8.37333 113.133 10.1067 114.039 11.6C114.946 13.0933 115.693 14.48 116.279 15.76C116.866 17.04 117.373 18.2933 117.799 19.52C118.226 20.6933 118.733 21.9733 119.319 23.36L120.199 24.88C120.253 24.88 120.413 25.04 120.679 25.36C120.999 25.68 121.319 26.0267 121.639 26.4C121.959 26.7733 122.279 27.12 122.599 27.44C122.919 27.76 123.133 27.92 123.239 27.92L123.719 27.28C123.666 25.7333 123.613 24.2133 123.559 22.72C123.559 21.1733 123.559 19.6267 123.559 18.08C123.559 16.16 123.586 14.24 123.639 12.32C123.693 10.4 123.799 8.50667 123.959 6.64C124.706 6.64 125.453 6.64 126.199 6.64C126.946 6.58666 127.693 6.56 128.439 6.56H130.199C130.519 6.56 130.839 6.58666 131.159 6.64C131.479 6.64 131.799 6.66666 132.119 6.72C132.386 6.66666 132.599 6.64 132.759 6.64C132.919 6.58666 133.053 6.56 133.159 6.56C133.373 6.98666 133.479 7.44 133.479 7.92V8.24L133.079 8.4L133.479 9.12C133.533 10.24 133.559 11.3867 133.559 12.56C133.613 13.68 133.639 14.8 133.639 15.92C133.639 16.6667 133.639 17.9467 133.639 19.76C133.639 21.5733 133.639 23.6267 133.639 25.92C133.693 28.2133 133.719 30.64 133.719 33.2C133.719 35.7067 133.719 38.08 133.719 40.32C133.773 42.5067 133.799 44.4 133.799 46C133.799 47.6 133.799 48.64 133.799 49.12C133.799 50.3467 133.773 51.5733 133.719 52.8C133.666 54.0267 133.639 55.2533 133.639 56.48V57.68C133.639 58.32 133.666 58.72 133.719 58.88H133.559L133.639 60.64H133.239ZM118.599 49.68C118.546 49.52 118.466 49.3333 118.359 49.12L118.599 49.68ZM156.763 45.76C157.083 46.9333 157.35 47.52 157.563 47.52C157.616 47.52 157.643 47.4933 157.643 47.44L158.443 49.68C159.136 51.92 159.643 53.68 159.963 54.96C160.336 56.24 160.656 57.28 160.923 58.08C161.243 58.8267 161.59 59.4667 161.963 60C162.39 60.5333 163.03 61.2267 163.883 62.08C163.936 62.1867 163.99 62.2667 164.043 62.32C164.15 62.3733 164.203 62.4533 164.203 62.56L164.603 62.16C165.03 62.1067 165.483 62.0533 165.963 62C166.443 62 166.923 62 167.403 62C168.096 62 168.763 62 169.403 62C170.043 62.0533 170.71 62.08 171.403 62.08H172.443C173.083 61.8667 173.563 61.7067 173.883 61.6C174.203 61.44 174.416 61.3333 174.523 61.28C174.683 61.2267 174.763 61.2 174.763 61.2C174.816 61.1467 174.843 61.12 174.843 61.12C174.736 60.8 174.656 59.9467 174.603 58.56C174.603 57.1733 174.55 55.7067 174.443 54.16C174.55 52.6133 174.603 51.12 174.603 49.68C174.656 48.1867 174.683 46.6667 174.683 45.12C174.683 42.08 174.656 39.12 174.603 36.24C174.55 33.3067 174.523 30.32 174.523 27.28C174.523 24.88 174.576 22.5333 174.683 20.24C174.843 17.9467 174.923 15.6 174.923 13.2C174.923 12.1333 174.896 11.0667 174.843 10C174.79 8.93333 174.71 7.86666 174.603 6.8C174.656 6.74666 174.683 6.69333 174.683 6.64C174.683 6.53333 174.603 6.42667 174.443 6.32C174.336 6.21333 174.283 6.08 174.283 5.92C174.283 5.86666 174.336 5.78666 174.443 5.68C174.55 5.52 174.63 5.44 174.683 5.44L174.763 5.2C173.963 4.93333 173.403 4.8 173.083 4.8L173.003 4.88C172.95 4.88 172.87 4.88 172.763 4.88C172.656 4.82666 172.55 4.8 172.443 4.8C171.376 4.8 170.443 4.82666 169.643 4.88C168.896 4.93333 168.203 4.98666 167.563 5.04C166.976 5.04 166.39 5.06667 165.803 5.12C165.27 5.17333 164.683 5.2 164.043 5.2C163.776 5.2 163.51 5.2 163.243 5.2C163.03 5.14666 162.79 5.09333 162.523 5.04C162.203 5.41333 162.07 5.89333 162.123 6.48C162.23 7.06667 162.176 7.49333 161.963 7.76C162.07 8.18666 162.123 8.42666 162.123 8.48C162.123 8.42666 162.123 8.96 162.123 10.08C162.176 11.2 162.203 12.4533 162.203 13.84C162.256 15.2267 162.283 16.5067 162.283 17.68C162.336 18.8 162.363 19.3333 162.363 19.28L162.203 19.04C162.363 20.32 162.496 21.3067 162.603 22C162.71 22.64 162.763 23.1733 162.763 23.6C162.816 23.9733 162.843 24.2933 162.843 24.56C162.896 24.8267 162.923 25.2 162.923 25.68L162.763 25.52C162.71 25.5733 162.683 25.68 162.683 25.84C162.683 25.9467 162.71 26.08 162.763 26.24C162.816 26.3467 162.843 26.4533 162.843 26.56C162.843 26.72 162.763 26.8267 162.603 26.88C162.23 26.4533 161.936 26.0533 161.723 25.68C161.563 25.2533 161.27 24.8267 160.843 24.4C160.896 24.3467 160.95 24.32 161.003 24.32L160.683 24C160.683 23.36 160.443 22.8 159.963 22.32C159.483 21.84 159.163 21.3067 159.003 20.72C158.843 20.56 158.683 20.2133 158.523 19.68C158.363 19.1467 158.176 18.56 157.963 17.92C157.75 17.28 157.563 16.6667 157.403 16.08C157.243 15.4933 157.083 15.0933 156.923 14.88C156.443 14.1333 155.91 13.3867 155.323 12.64C154.79 11.8933 154.416 11.2267 154.203 10.64C154.15 10.4267 153.963 10.0267 153.643 9.44C153.376 8.8 153.03 8.13333 152.603 7.44C152.176 6.74666 151.696 6.13333 151.163 5.6C150.683 5.06666 150.203 4.8 149.723 4.8C148.87 4.8 148.043 4.93333 147.243 5.2C146.443 5.41333 145.67 5.52 144.923 5.52C144.496 5.52 144.07 5.49333 143.643 5.44C143.216 5.33333 142.843 5.28 142.523 5.28C141.99 5.28 141.536 5.38666 141.163 5.6C140.843 5.81333 140.683 6.29333 140.683 7.04V9.12C140.683 10.4 140.63 11.7067 140.523 13.04C140.416 14.32 140.363 15.6 140.363 16.88V17.68C140.363 18.1067 140.39 18.3733 140.443 18.48C140.443 18.5867 140.416 19.4933 140.363 21.2C140.363 22.8533 140.336 24.9067 140.283 27.36C140.283 29.76 140.256 32.3733 140.203 35.2C140.203 37.9733 140.176 40.5333 140.123 42.88C140.123 45.2267 140.096 47.1733 140.043 48.72C140.043 50.2133 140.043 50.9067 140.043 50.8C140.256 51.28 140.363 52.0533 140.363 53.12C140.363 53.5467 140.336 53.9467 140.283 54.32C140.23 54.6933 140.203 55.0933 140.203 55.52C140.203 56.16 140.23 56.88 140.283 57.68C140.39 58.4267 140.443 59.1733 140.443 59.92C140.443 60.7733 140.363 61.44 140.203 61.92C140.203 62.0267 140.256 62.08 140.363 62.08C140.523 62.08 140.603 62.0533 140.603 62L141.163 62.4L142.123 62C142.39 61.8933 142.656 61.8667 142.923 61.92C143.19 61.92 143.456 61.8933 143.723 61.84C144.31 62.0533 145.03 62.1067 145.883 62C146.736 61.9467 147.936 62.0267 149.483 62.24C150.176 62.0267 150.71 61.92 151.083 61.92C151.19 61.92 151.27 61.9733 151.323 62.08C151.43 62.1867 151.563 62.24 151.723 62.24C151.99 62.24 152.283 62.08 152.603 61.76L152.843 62.24C152.95 61.7067 153.003 61.44 153.003 61.44V60.8C153.003 60.48 152.95 60.2667 152.843 60.16C152.79 60 152.763 59.76 152.763 59.44C152.763 59.2267 152.843 58.8 153.003 58.16C152.843 56.56 152.763 55.4133 152.763 54.72C152.763 54.2933 152.843 53.7067 153.003 52.96C153.163 52.2133 153.243 51.6 153.243 51.12C153.243 50.96 153.216 50.8533 153.163 50.8C153.216 50.64 153.243 50.32 153.243 49.84V45.28C153.243 45.12 153.216 44.8 153.163 44.32C153.163 43.7867 153.136 43.2267 153.083 42.64C153.03 42.0533 152.976 41.4933 152.923 40.96C152.923 40.3733 152.923 39.9733 152.923 39.76V38.88C152.923 38.3467 153.003 37.92 153.163 37.6L156.683 44.64L156.763 45.76ZM173.083 60.64C172.816 60.64 172.55 60.6667 172.283 60.72C172.016 60.7733 171.75 60.8 171.483 60.8C171.11 60.8 170.843 60.72 170.683 60.56C170.043 60.72 169.35 60.8 168.603 60.8C167.856 60.8 167.136 60.7733 166.443 60.72C165.75 60.6133 165.03 60.56 164.283 60.56C163.696 59.0133 163.163 57.68 162.683 56.56C162.203 55.3867 161.75 54.2933 161.323 53.28C160.896 52.2133 160.47 51.12 160.043 50C159.616 48.88 159.136 47.5467 158.603 46C158.336 45.8933 158.23 45.7333 158.283 45.52C158.39 45.2533 158.31 45.04 158.043 44.88L157.643 43.84C157.696 43.7867 157.723 43.68 157.723 43.52C157.723 43.36 157.643 43.2267 157.483 43.12C157.323 42.96 157.19 42.7467 157.083 42.48C156.87 41.68 156.55 40.96 156.123 40.32C155.75 39.6267 155.35 38.96 154.923 38.32C154.55 37.68 154.176 37.04 153.803 36.4C153.483 35.7067 153.27 34.9333 153.163 34.08C153.11 34.08 153.056 34.08 153.003 34.08C152.95 34.0267 152.896 34 152.843 34C152.47 34 152.203 34.1333 152.043 34.4C151.883 34.6133 151.75 34.9067 151.643 35.28C151.59 35.6 151.563 35.9467 151.563 36.32C151.563 36.6933 151.536 37.04 151.483 37.36L151.643 37.6C151.643 40.16 151.67 42.4267 151.723 44.4C151.776 46.32 151.803 48.2133 151.803 50.08C151.803 51.3067 151.803 52.5333 151.803 53.76C151.803 54.9867 151.696 56.2133 151.483 57.44L151.083 59.76C150.976 59.76 150.896 59.84 150.843 60C150.843 60.1067 150.87 60.2133 150.923 60.32C151.03 60.4267 151.083 60.56 151.083 60.72C149.643 61.04 148.123 61.2 146.523 61.2C145.723 61.2 144.95 61.1733 144.203 61.12C143.51 61.0667 142.87 60.9867 142.283 60.88C142.016 57.9467 141.883 54.7467 141.883 51.28C141.936 47.76 141.91 44.4 141.803 41.2C141.696 40.9867 141.616 40.2933 141.563 39.12C141.563 37.9467 141.563 36.5067 141.563 34.8C141.563 33.2 141.59 31.6267 141.643 30.08C141.75 28.5333 141.803 26.9867 141.803 25.44C141.803 25.0133 141.776 24.6133 141.723 24.24C141.723 23.8133 141.723 23.3867 141.723 22.96L141.963 22.64C142.016 20.9867 142.176 15.8667 142.443 7.28C143.563 7.17333 144.656 6.98666 145.723 6.72C146.79 6.45333 147.91 6.32 149.083 6.32C149.296 6.32 149.483 6.34666 149.643 6.4C149.856 6.4 150.07 6.4 150.283 6.4C151.776 8.37333 152.976 10.1067 153.883 11.6C154.79 13.0933 155.536 14.48 156.123 15.76C156.71 17.04 157.216 18.2933 157.643 19.52C158.07 20.6933 158.576 21.9733 159.163 23.36L160.043 24.88C160.096 24.88 160.256 25.04 160.523 25.36C160.843 25.68 161.163 26.0267 161.483 26.4C161.803 26.7733 162.123 27.12 162.443 27.44C162.763 27.76 162.976 27.92 163.083 27.92L163.563 27.28C163.51 25.7333 163.456 24.2133 163.403 22.72C163.403 21.1733 163.403 19.6267 163.403 18.08C163.403 16.16 163.43 14.24 163.483 12.32C163.536 10.4 163.643 8.50667 163.803 6.64C164.55 6.64 165.296 6.64 166.043 6.64C166.79 6.58666 167.536 6.56 168.283 6.56H170.043C170.363 6.56 170.683 6.58666 171.003 6.64C171.323 6.64 171.643 6.66666 171.963 6.72C172.23 6.66666 172.443 6.64 172.603 6.64C172.763 6.58666 172.896 6.56 173.003 6.56C173.216 6.98666 173.323 7.44 173.323 7.92V8.24L172.923 8.4L173.323 9.12C173.376 10.24 173.403 11.3867 173.403 12.56C173.456 13.68 173.483 14.8 173.483 15.92C173.483 16.6667 173.483 17.9467 173.483 19.76C173.483 21.5733 173.483 23.6267 173.483 25.92C173.536 28.2133 173.563 30.64 173.563 33.2C173.563 35.7067 173.563 38.08 173.563 40.32C173.616 42.5067 173.643 44.4 173.643 46C173.643 47.6 173.643 48.64 173.643 49.12C173.643 50.3467 173.616 51.5733 173.563 52.8C173.51 54.0267 173.483 55.2533 173.483 56.48V57.68C173.483 58.32 173.51 58.72 173.563 58.88H173.403L173.483 60.64H173.083ZM158.443 49.68C158.39 49.52 158.31 49.3333 158.203 49.12L158.443 49.68ZM211.727 59.2C211.194 57.9733 210.794 56.56 210.527 54.96C210.314 53.3067 210.074 51.8133 209.807 50.48C209.807 50.2667 209.914 50.16 210.127 50.16C210.074 49.9467 210.047 49.7333 210.047 49.52C210.047 49.3067 209.914 49.1467 209.647 49.04C209.327 48.1333 209.167 47.1733 209.167 46.16C209.167 45.0933 208.954 44.1333 208.527 43.28C208.367 41.68 208.074 40.0533 207.647 38.4C207.274 36.6933 206.954 35.04 206.687 33.44C206.1 31.84 205.674 30.1867 205.407 28.48C205.14 26.72 204.767 25.0133 204.287 23.36C204.287 23.2533 204.287 23.1733 204.287 23.12C204.34 23.0667 204.367 23.0133 204.367 22.96C204.367 22.9067 204.394 22.8533 204.447 22.8C204.447 22.3733 204.287 22 203.967 21.68C203.647 21.3067 203.487 20.8533 203.487 20.32C203.06 17.76 202.554 15.28 201.967 12.88C201.38 10.4267 200.767 7.92 200.127 5.36C199.487 5.36 198.687 5.41333 197.727 5.52C196.82 5.62666 195.274 5.68 193.087 5.68H191.727C191.247 6 190.767 6.48 190.287 7.12C189.86 7.76 189.46 8.45333 189.087 9.2C188.714 9.94666 188.394 10.72 188.127 11.52C187.86 12.2667 187.7 12.9333 187.647 13.52C187.754 13.36 187.834 13.2 187.887 13.04C187.94 12.8267 188.02 12.6667 188.127 12.56C187.54 15.6 186.874 18.5867 186.127 21.52C185.434 24.4533 184.714 27.44 183.967 30.48V29.52C184.02 29.36 184.047 29.0933 184.047 28.72C182.874 33.4133 181.86 38.32 181.007 43.44C180.154 48.5067 179.274 53.3867 178.367 58.08C178.687 56.9067 179.007 55.4667 179.327 53.76C179.7 52 180.047 50.32 180.367 48.72C180.687 47.12 180.98 45.76 181.247 44.64C181.514 43.4667 181.727 42.88 181.887 42.88C181.514 45.44 181.034 48.1867 180.447 51.12C179.914 54.0533 179.434 56.8 179.007 59.36C178.954 59.5733 178.847 59.76 178.687 59.92C178.527 60.08 178.447 60.24 178.447 60.4C178.447 60.5067 178.527 60.64 178.687 60.8L178.367 61.28C178.26 61.6 178.18 61.7333 178.127 61.68C178.127 61.6267 178.127 61.6533 178.127 61.76C178.127 61.8667 178.18 61.92 178.287 61.92C178.394 61.92 178.474 61.9733 178.527 62.08C179.807 61.92 181.14 61.8667 182.527 61.92C183.914 61.92 185.274 61.8933 186.607 61.84L186.767 62C186.82 61.9467 187.007 61.92 187.327 61.92C187.594 61.92 187.887 61.9467 188.207 62C188.527 62.1067 188.82 62.16 189.087 62.16C189.514 62.16 189.86 62.0267 190.127 61.76C190.287 61.0667 190.474 60.24 190.687 59.28C190.9 58.32 191.114 57.36 191.327 56.4C191.594 55.3867 191.834 54.4 192.047 53.44C192.26 52.48 192.447 51.6267 192.607 50.88C192.82 50.4 193.3 50.16 194.047 50.16C194.367 50.16 194.687 50.2133 195.007 50.32C195.38 50.3733 195.727 50.4 196.047 50.4C196.047 50.3467 196.1 50.32 196.207 50.32C196.42 50.32 196.634 50.2933 196.847 50.24C196.314 50.1333 195.78 50.08 195.247 50.08C194.767 50.0267 194.26 49.92 193.727 49.76C194.314 49.4933 194.927 49.3867 195.567 49.44C196.26 49.44 196.927 49.4133 197.567 49.36L197.887 49.68C198.207 50.48 198.527 51.4133 198.847 52.48C199.22 53.4933 199.567 54.56 199.887 55.68C200.26 56.7467 200.607 57.8133 200.927 58.88C201.3 59.9467 201.647 60.9067 201.967 61.76C202.5 61.92 203.194 62 204.047 62C204.9 62 205.914 62.0267 207.087 62.08C209.06 62.1867 210.367 62.2667 211.007 62.32C211.647 62.3733 212.074 62.4 212.287 62.4C212.394 62.4 212.5 62.24 212.607 61.92C212.447 61.44 212.287 60.9867 212.127 60.56C211.967 60.1333 211.834 59.68 211.727 59.2ZM210.207 60.4C209.46 60.4533 208.767 60.48 208.127 60.48C207.54 60.48 206.98 60.48 206.447 60.48C204.58 60.48 203.54 60.4 203.327 60.24C203.22 60.3467 203.087 60.4267 202.927 60.48C202.82 60.48 202.714 60.5067 202.607 60.56V59.92H202.927C202.5 59.28 202.127 58.5067 201.807 57.6C201.487 56.6933 201.194 55.7333 200.927 54.72C200.66 53.7067 200.394 52.72 200.127 51.76C199.86 50.8 199.567 49.9467 199.247 49.2L199.407 48.88C199.407 48.6133 199.274 48.4267 199.007 48.32C198.794 48.16 198.634 48.0267 198.527 47.92C197.407 48.0267 196.207 48.0533 194.927 48C193.647 47.9467 192.554 48.1867 191.647 48.72L192.047 49.36C191.78 50 191.54 50.8 191.327 51.76C191.167 52.6667 190.98 53.6 190.767 54.56C190.554 55.52 190.314 56.4533 190.047 57.36C189.78 58.2667 189.46 59.0133 189.087 59.6C187.647 59.92 186.18 60.2133 184.687 60.48C183.247 60.6933 181.754 60.9333 180.207 61.2L179.887 61.04C180.154 59.76 180.474 58.4533 180.847 57.12C181.22 55.7333 181.594 54.3467 181.967 52.96C182.34 51.52 182.66 50.1067 182.927 48.72C183.247 47.3333 183.434 45.9733 183.487 44.64C183.167 44.7467 183.007 44.96 183.007 45.28C183.007 45.5467 182.9 45.8133 182.687 46.08V45.84C182.687 45.4667 182.767 45.0933 182.927 44.72C183.087 44.2933 183.167 43.8667 183.167 43.44C183.114 43.44 183.087 43.3867 183.087 43.28C183.087 43.2267 183.06 43.1467 183.007 43.04C183.007 42.9333 183.007 42.8267 183.007 42.72C183.274 42.1867 183.487 41.52 183.647 40.72C183.807 39.8667 183.967 39.0667 184.127 38.32C184.18 38.0533 184.287 37.6267 184.447 37.04C184.66 36.4 184.847 35.7333 185.007 35.04C185.22 34.3467 185.407 33.7333 185.567 33.2C185.727 32.6133 185.807 32.24 185.807 32.08C185.807 31.9733 185.754 31.6533 185.647 31.12C186.074 30.5333 186.34 29.84 186.447 29.04C186.554 28.1867 186.66 27.3867 186.767 26.64H186.527C187.007 25.6267 187.38 24.5867 187.647 23.52C187.914 22.4533 188.154 21.36 188.367 20.24C188.58 19.12 188.794 18 189.007 16.88C189.22 15.76 189.514 14.64 189.887 13.52C190.26 12.4 190.58 11.36 190.847 10.4C191.114 9.38666 191.327 8.24 191.487 6.96C193.194 6.90667 194.527 6.88 195.487 6.88C196.5 6.88 197.167 6.88 197.487 6.88C197.487 6.93333 197.407 7.04 197.247 7.2C197.354 7.30666 197.54 7.36 197.807 7.36C198.02 7.36 198.207 7.36 198.367 7.36C198.58 7.30667 198.767 7.28 198.927 7.28C199.407 7.28 199.647 7.57333 199.647 8.16L200.047 11.12L199.967 11.04C200.5 13.92 201.06 16.6133 201.647 19.12C202.234 21.5733 202.58 23.6533 202.687 25.36L202.847 24.8C202.9 24.8 202.927 24.8533 202.927 24.96L203.007 25.2C203.114 25.2 203.167 25.12 203.167 24.96C203.167 24.5867 203.087 24.2133 202.927 23.84C202.767 23.4667 202.687 23.0667 202.687 22.64C202.687 22.4267 202.767 22.16 202.927 21.84C202.82 21.4133 202.767 21.1733 202.767 21.12V20.8C202.874 21.92 203.194 23.0933 203.727 24.32C204.314 25.4933 204.607 26.6933 204.607 27.92V28.4C205.087 29.84 205.46 31.44 205.727 33.2C205.994 34.9067 206.34 36.5333 206.767 38.08C206.767 38.1867 206.714 38.2667 206.607 38.32C206.5 38.3733 206.447 38.4533 206.447 38.56C206.447 38.6133 206.5 38.6933 206.607 38.8C206.5 38.9067 206.42 38.96 206.367 38.96C206.26 38.7467 206.18 38.5333 206.127 38.32C206.127 38.1067 206.074 37.8667 205.967 37.6H206.127V37.36C206.127 37.1467 206.047 36.96 205.887 36.8C205.78 36.5867 205.674 36.4 205.567 36.24C204.234 32.3467 203.514 30.4 203.407 30.4C203.46 30.5067 203.487 30.6133 203.487 30.72C203.487 30.7733 203.514 30.8533 203.567 30.96C204.047 32.9867 204.474 34.64 204.847 35.92C205.22 37.1467 205.514 38.1867 205.727 39.04C205.94 39.84 206.1 40.48 206.207 40.96C206.314 41.44 206.367 41.8667 206.367 42.24V42.48C206.367 43.0667 206.527 43.8933 206.847 44.96C207.167 46.0267 207.54 47.2533 207.967 48.64C208.447 50.0267 208.9 51.52 209.327 53.12C209.807 54.72 210.18 56.3467 210.447 58L210.847 60.4H210.207ZM195.967 23.68C195.807 22.8267 195.594 22.4 195.327 22.4C195.167 22.4 195.034 22.56 194.927 22.88C194.874 23.2 194.847 23.4667 194.847 23.68C194.847 23.9467 194.874 24.1067 194.927 24.16C194.554 24.5333 194.367 24.8533 194.367 25.12V25.52C194.367 26.1067 194.207 27.0667 193.887 28.4C193.3 30.8 192.954 32.7467 192.847 34.24C192.794 35.7333 192.714 36.6933 192.607 37.12L192.527 37.04C192.474 37.0933 192.447 37.2 192.447 37.36V37.68C192.447 37.7867 192.394 37.8933 192.287 38C192.234 38.0533 192.207 38.2133 192.207 38.48C192.207 38.8533 192.314 39.04 192.527 39.04H193.567C194.154 39.04 194.82 39.0667 195.567 39.12C196.314 39.1733 196.98 39.2 197.567 39.2C197.727 39.2 197.887 39.2 198.047 39.2C198.207 39.1467 198.367 39.12 198.527 39.12L198.767 38.96C198.287 37.36 197.914 35.3067 197.647 32.8C197.38 30.2933 196.82 27.2533 195.967 23.68ZM195.647 25.36C196.127 26.16 196.474 27.2 196.687 28.48C196.954 29.76 197.14 31.0667 197.247 32.4C197.407 33.68 197.54 34.88 197.647 36C197.754 37.0667 197.94 37.84 198.207 38.32L197.887 38.56H193.327L193.007 37.68L192.847 37.76L193.007 37.44L193.167 37.6C193.22 37.28 193.327 36.6133 193.487 35.6C193.647 34.5333 193.807 33.4133 193.967 32.24C194.18 31.0667 194.34 29.9733 194.447 28.96C194.607 27.8933 194.687 27.2 194.687 26.88V26.24C194.687 25.8133 194.767 25.4667 194.927 25.2C195.14 24.9333 195.3 24.6667 195.407 24.4C195.567 24.5067 195.647 24.6933 195.647 24.96V25.36ZM181.567 42.64C181.994 40.7733 182.34 38.9067 182.607 37.04C182.927 35.12 183.38 33.2267 183.967 31.36C183.7 33.12 183.407 34.9867 183.087 36.96C182.767 38.88 182.394 40.7467 181.967 42.56L181.567 42.64ZM178.207 58.72C178.26 58.6133 178.287 58.5067 178.287 58.4C178.287 58.2933 178.314 58.1867 178.367 58.08C178.314 58.1867 178.287 58.2933 178.287 58.4C178.287 58.5067 178.26 58.6133 178.207 58.72Z" fill="#1E2328"/>
</svg>
