<svg width="121" height="179" viewBox="0 0 171 229" fill="none" xmlns="http://www.w3.org/2000/svg">
<path d="M111.867 20.6004L101.6 41.0004L97.8666 33.2671C95.8666 29.1338 93.7333 25.6671 93.3333 25.6671C92.9333 25.6671 81.2 48.6004 67.3333 76.4671L42 127.4L41.6 117.267L41.2 107.134L60.6666 68.4671C71.3333 47.2671 80 29.5338 80 29.1338C80 28.7338 79.0666 28.7338 77.8666 29.2671C76.8 29.6671 67.2 47.2671 56.5333 68.4671L37.3333 107V121.667V136.334L26.5333 157.8C20.6666 169.667 16.1333 179.534 16.5333 179.934C18.5333 181.934 21.6 177.667 28.8 162.467C33.0666 153.267 36.9333 145.667 37.3333 145.667C37.7333 145.667 37.7333 151.8 37.3333 159.267L36.6666 173L23.6 198.734C16.4 213 10.8 225.267 10.9333 225.934C11.7333 228.067 14.1333 223.534 26 199L36.6666 177L37.0666 202.6L37.3333 228.334L90.6666 228.6C132.667 228.867 144 228.6 144 227.267C144 226.067 132.8 225.667 92.6666 225.667H41.3333V196.6V167.534L46.8 156.867C49.7333 151.134 52.4 146.2 52.5333 146.067C52.5333 145.934 52.6666 161.934 52.6666 181.4V217L106.4 217.4C141.867 217.534 160 217.267 160 216.334C160 215.4 142 215 107.333 215H54.6666V192.334V169.667L60 159C62.9333 153.134 65.6 148.334 65.8666 148.334C66.1333 148.334 66.2666 161.534 66.1333 177.667L66 207H118.533C147.467 207 170.8 206.734 170.4 206.334C170 205.934 146.8 205.534 118.8 205.667H68V174.734V143.667L80.2666 118.734C87.0666 105 92.9333 93.8004 93.3333 93.8004C93.7333 93.6671 103.733 113.134 115.733 137C127.6 160.867 137.867 180.334 138.667 180.334C139.333 180.334 129.6 159.667 117.067 134.334C104.4 109 93.7333 88.3338 93.3333 88.3338C92.9333 88.4671 87.2 99.6671 80.4 113.4L68.1333 138.334L68 126.867V115.4L80.4 89.9338C87.0666 75.8004 92.9333 64.3338 93.3333 64.3338C93.7333 64.3338 107.067 90.4671 123.067 122.334C138.933 154.2 152.533 180.334 153.333 180.334C154.133 180.334 141.2 153.267 124.667 120.334L94.6666 60.3338L97.8666 54.0671L100.933 47.8004L134 113.667C152.133 149.934 167.733 179.8 168.8 180.067C169.867 180.334 170.667 180.2 170.667 179.8C170.667 179.4 155.467 148.6 136.8 111.267L102.933 43.6671L113.467 23.0004C119.2 11.6671 123.867 1.93376 123.867 1.26709C124.267 -2.73291 120.533 3.13376 111.867 20.6004ZM96.8 39.2671L99.6 45.0004L77.4666 89.6671L55.3333 134.334L54.9333 123L54.5333 111.667L73.6 72.7338C84.1333 51.4004 92.9333 33.8004 93.4666 33.8004C93.8666 33.6671 95.3333 36.2004 96.8 39.2671ZM52.6666 128.067C52.1333 140.067 51.7333 141.8 46.8 151.667L41.4666 162.334V149.934C41.3333 138.067 41.6 137 46.6666 126.2C49.6 120.067 52.2666 115 52.5333 115C52.8 115 52.8 120.867 52.6666 128.067ZM61.0666 152.6L55.3333 163.667L54.9333 152.734C54.5333 142.2 54.8 141.4 60.2666 130.067L66 118.334L66.4 129.934C66.8 141.267 66.6666 141.8 61.0666 152.6Z" fill="black"/>
<path d="M0.1333 29.2666C0.1333 29.9333 8.1333 46.2 18 65.6666C31.6 92.6 36 100.467 36.8 98.4666C37.4666 96.6 33.4666 87.1333 21.8666 63.9333C13.2 46.3333 5.19997 31.1333 4.26663 30.1999C2.26663 28.1999 -3.37161e-05 27.6666 0.1333 29.2666Z" fill="black"/>
<path d="M17.3333 29.6669C17.3333 30.8669 42.2666 81.5336 43.4666 82.8669C43.7333 83.1336 44.4 83.1336 44.8 82.7336C45.4666 81.9336 19.2 28.3335 18 28.3335C17.6 28.3335 17.3333 29.0002 17.3333 29.6669Z" fill="black"/>
<path d="M32 29C32 31.4 51.2 68.0666 52.1333 67.5333C53.3333 66.8666 35.6 30.3333 33.3333 29C32.6667 28.6 32 28.6 32 29Z" fill="black"/>
</svg>
